<?xml version="1.0" encoding="UTF-8"?>
<svg width="148px" height="20px" viewBox="0 0 148 20" version="1.1" xmlns="http://www.w3.org/2000/svg" xmlns:xlink="http://www.w3.org/1999/xlink">
    <!-- Generator: Sketch 50.2 (55047) - http://www.bohemiancoding.com/sketch -->
    <title>Logo</title>
    <desc>Created with Sketch.</desc>
    <defs></defs>
    <g id="Page-1" stroke="none" stroke-width="1" fill="none" fill-rule="evenodd">
        <g id="Test" transform="translate(-716.000000, -14.000000)" fill="#222222">
            <g id="Logo" transform="translate(716.000000, 14.000000)">
                <polyline id="Fill-92" points="3.94581981 3.9812454 11.8234174 3.9812454 11.8234174 0 3.94581981 0 3.94581981 0.00106251545 0 3.9812454 0 19.8626639 3.94581981 19.8626639 3.94581981 11.9249651 9.86103901 11.9249651 9.86103901 7.94230301 3.94581981 7.94230301 3.94581981 3.9812454"></polyline>
                <path d="M22.9477406,7.94230301 L26.8689868,7.94230301 L26.8689868,3.9812454 L22.9477406,3.9812454 L22.9477406,7.94230301 Z M26.8689868,0.000354171817 L26.8689868,0 L22.9477406,0 L19.0019208,3.9812454 L19.0019208,19.8626639 L22.9477406,19.8626639 L22.9477406,11.9249651 L26.8689868,11.9249651 L26.8689868,19.8626639 L30.8148066,19.8626639 L30.8148066,3.9812454 L26.8689868,0.000354171817 L26.8689868,0.000354171817 Z" id="Fill-93"></path>
                <polyline id="Fill-94" points="135.828545 0 135.828545 19.8626639 139.774365 19.8626639 139.774365 11.9249651 143.695611 11.9249651 143.695611 19.8626639 147.641431 19.8626639 147.641431 0 143.695611 0 143.695611 7.94230301 139.774365 7.94230301 139.774365 0 135.828545 0"></polyline>
                <polyline id="Fill-95" points="43.343169 7.94230301 43.343169 3.98159957 47.3065414 3.98159957 47.3065414 7.94230301 51.2523612 7.94230301 51.2523612 3.98159957 47.3065414 0 39.4113912 0 39.4113912 19.8626639 43.343169 19.8626639 43.343169 11.9249651 47.3065414 11.9249651 47.3065414 19.8626639 51.2523612 19.8626639 51.2523612 11.9249651 47.3065414 7.94230301 43.343169 7.94230301"></polyline>
                <polyline id="Fill-96" points="63.7666815 3.9812454 71.644279 3.9812454 71.644279 0 63.763171 0 59.8208617 3.9812454 59.8208617 19.8626639 63.763171 19.8626639 63.763171 11.9249651 69.6819007 11.9249651 69.6819007 7.94230301 63.763171 7.94230301 63.763171 3.9812454 63.7666815 3.9812454"></polyline>
                <polyline id="Fill-97" points="109.651631 0 97.8387453 0 97.8247032 3.98159957 101.763502 3.98159957 101.763502 19.8626639 105.709322 19.8626639 105.709322 3.98159957 109.651631 3.98159957 109.651631 0"></polyline>
                <polyline id="Fill-98" points="82.0683379 15.886731 82.0648274 15.886731 82.0648274 11.9249651 87.9800466 11.9249651 87.9800466 7.94230301 82.0648274 7.94230301 82.0648274 3.98159957 89.9459355 3.98159957 89.9459355 0 82.0648274 0 78.1225181 3.98159957 78.1190076 3.98159957 78.1190076 15.886731 78.1260286 15.886731 82.0648274 19.8626639 89.9459355 19.8626639 89.9459355 15.886731 82.0683379 15.886731"></polyline>
                <polyline id="Fill-99" points="120.772444 15.886731 120.772444 3.9812454 128.646531 3.9812454 128.646531 0 120.768933 0 116.826624 3.9812454 116.826624 15.886731 120.768933 19.8626639 128.650041 19.8626639 128.650041 15.886731 120.772444 15.886731"></polyline>
            </g>
        </g>
    </g>
</svg>