<svg aria-hidden="true" style="position: absolute; width: 0; height: 0; overflow: hidden;" version="1.1" xmlns="http://www.w3.org/2000/svg" xmlns:xlink="http://www.w3.org/1999/xlink">
<defs>
<symbol id="icon-cross" viewBox="0 0 32 32">
<title>cross</title>
<path d="M19.113 16.284l11.314 11.314c0.781 0.781 0.781 2.047 0 2.828s-2.047 0.781-2.828 0l-11.314-11.314-11.314 11.314c-0.781 0.781-2.047 0.781-2.828 0s-0.781-2.047 0-2.828l11.314-11.314-11.314-11.314c-0.781-0.781-0.781-2.047 0-2.828s2.047-0.781 2.828 0l11.314 11.314 11.314-11.314c0.781-0.781 2.047-0.781 2.828 0s0.781 2.047 0 2.828l-11.314 11.314z"></path>
</symbol>
<symbol id="icon-edit" viewBox="0 0 32 32">
<title>edit</title>
<path d="M26.278 15.996c-0.631 0-1.143 0.512-1.143 1.143v11.425c0 0.631-0.512 1.143-1.143 1.143h-20.566c-0.631 0-1.143-0.512-1.143-1.143v-22.851c0-0.631 0.512-1.143 1.143-1.143h13.71c0.631 0 1.143-0.512 1.143-1.143s-0.512-1.143-1.143-1.143h-13.71c-1.893 0-3.428 1.535-3.428 3.428v22.851c0 1.893 1.535 3.428 3.428 3.428h20.566c1.893 0 3.428-1.535 3.428-3.428v-11.425c0-0.631-0.512-1.143-1.143-1.143z"></path>
<path d="M30.711 1.281c-0.82-0.821-1.933-1.281-3.093-1.281-1.161-0.003-2.275 0.458-3.093 1.282l-15.050 15.048c-0.125 0.126-0.219 0.279-0.275 0.447l-2.285 6.855c-0.199 0.599 0.124 1.246 0.723 1.445 0.116 0.039 0.238 0.058 0.36 0.059s0.245-0.020 0.361-0.058l6.855-2.285c0.168-0.056 0.321-0.151 0.447-0.276l15.050-15.050c1.708-1.708 1.708-4.477 0-6.185zM29.095 5.852l-14.853 14.853-4.438 1.482 1.477-4.432 14.859-14.853c0.817-0.815 2.14-0.814 2.955 0.003 0.389 0.39 0.609 0.918 0.611 1.47 0.001 0.554-0.219 1.086-0.611 1.477z"></path>
</symbol>
<symbol id="icon-lock" viewBox="0 0 32 32">
<title>lock</title>
<path fill="#26d46d" style="fill: var(--color1, #26d46d)" d="M24.675 11.75h-2.245v-5.139c0-3.645-3.018-6.611-6.727-6.611s-6.727 2.966-6.727 6.611v5.139h-2.24c-2.061 0-3.737 1.682-3.737 3.75v12.75c0 2.068 1.676 3.75 3.737 3.75h17.938c2.061 0 3.737-1.682 3.737-3.75v-12.75c0-2.068-1.676-3.75-3.737-3.75zM11.468 6.611c0-2.267 1.9-4.111 4.235-4.111s4.235 1.844 4.235 4.111v5.139h-8.471v-5.139zM25.92 28.25c0 0.689-0.559 1.25-1.246 1.25h-17.938c-0.687 0-1.246-0.561-1.246-1.25v-12.75c0-0.689 0.559-1.25 1.246-1.25h17.938c0.687 0 1.246 0.561 1.246 1.25v12.75z"></path>
<path fill="#26d46d" style="fill: var(--color1, #26d46d)" d="M15.706 17.882c-1.3 0-2.353 1.063-2.353 2.374 0 0.837 0.43 1.573 1.079 1.996v2.817c0 0.709 0.569 1.283 1.272 1.283s1.272-0.575 1.272-1.283v-2.814c0.651-0.422 1.083-1.159 1.083-1.999 0-1.311-1.053-2.374-2.353-2.374z"></path>
</symbol>
<symbol id="icon-package" viewBox="0 0 31 32">
<title>package</title>
<path fill="#26d46d" style="fill: var(--color1, #26d46d)" d="M29.489 7.541c0-0.122-0.027-0.243-0.081-0.358-0.108-0.23-0.317-0.385-0.547-0.432l-13.752-6.67c-0.223-0.108-0.486-0.108-0.709 0l-13.887 6.731c-0.27 0.128-0.446 0.398-0.459 0.702v0.007c0 0.007 0 0.013 0 0.027v16.891c0 0.311 0.176 0.594 0.459 0.729l13.887 6.731c0.007 0 0.007 0 0.014 0.007 0.020 0.007 0.040 0.014 0.061 0.027 0.007 0 0.014 0.007 0.027 0.007 0.020 0.007 0.040 0.014 0.061 0.020 0.007 0 0.014 0.007 0.020 0.007 0.020 0.007 0.047 0.007 0.068 0.014 0.007 0 0.014 0 0.020 0 0.027 0 0.061 0.007 0.088 0.007s0.061 0 0.088-0.007c0.007 0 0.014 0 0.020 0 0.020 0 0.047-0.007 0.068-0.014 0.007 0 0.014-0.007 0.020-0.007 0.020-0.007 0.040-0.014 0.061-0.020 0.007 0 0.014-0.007 0.027-0.007 0.020-0.007 0.040-0.014 0.061-0.027 0.007 0 0.007 0 0.014-0.007l13.927-6.751c0.277-0.135 0.459-0.419 0.459-0.729v-16.857c-0.014-0.007-0.014-0.013-0.014-0.020zM14.751 1.708l12.044 5.84-4.435 2.154-12.044-5.84 4.435-2.154zM14.751 13.387l-12.044-5.84 5.752-2.788 12.044 5.84-5.752 2.788zM1.674 8.851l12.267 5.948v15.075l-12.267-5.948v-15.075zM15.561 29.873v-15.075l5.759-2.795v3.943c0 0.446 0.365 0.81 0.81 0.81s0.81-0.365 0.81-0.81v-4.732l4.928-2.39v15.075l-12.307 5.975z"></path>
</symbol>
<symbol id="icon-phone" viewBox="0 0 32 32">
<title>phone</title>
<path d="M16 29.818c7.632 0 13.818-6.187 13.818-13.818s-6.187-13.818-13.818-13.818c-7.632 0-13.818 6.187-13.818 13.818s6.187 13.818 13.818 13.818zM16 32c-8.837 0-16-7.163-16-16s7.163-16 16-16c8.837 0 16 7.163 16 16s-7.163 16-16 16z"></path>
<path d="M22.268 20.118c-0.373-0.445-2.974-1.298-3.201-1.311l-0.183 0.013c-0.34 0.068-0.711 0.358-1.422 0.967-0.138 0.119-0.344 0.153-0.505 0.065-0.941-0.511-2.101-1.537-2.675-2.166-0.617-0.677-1.374-1.771-1.738-2.668-0.068-0.166-0.008-0.357 0.129-0.476 0.823-0.712 1.173-1.056 1.196-1.434 0.014-0.221-0.333-2.7-0.954-3.245s-0.943-0.589-1.475-0.484c-0.129 0.025-0.253 0.075-0.37 0.146-0.357 0.218-1.23 0.807-1.627 1.576-0.246 0.48-0.357 4.852 3.015 8.548 3.332 3.653 7.442 3.812 8.058 3.69l0.071-0.019c0.833-0.29 1.54-1.062 1.805-1.38 0.49-0.589 0.25-1.376-0.123-1.821z"></path>
</symbol>
<symbol id="icon-plus" viewBox="0 0 32 32">
<title>plus</title>
<path d="M30.027 14.027h-12.050v-12.050c0-1.088-0.885-1.977-1.977-1.977-1.088 0-1.973 0.889-1.973 1.977v12.050h-12.050c-1.088 0-1.977 0.885-1.977 1.973 0 1.092 0.889 1.977 1.977 1.977h12.050v12.050c0 1.088 0.885 1.977 1.973 1.977 1.092 0 1.977-0.889 1.977-1.977v-12.050h12.050c1.088 0 1.973-0.885 1.973-1.977 0-1.088-0.885-1.973-1.973-1.973z"></path>
</symbol>
</defs>
</svg>
